# xmcd
#
# Track frame offsets:
#	150
#	17075
#	32635
#	61233
#	75070
#	96908
#	120658
#	158450
#	165643
#
# Disc length: 2477 seconds
#
# Revision: 3
# Processed by: cddbd v1.5.1PL0 Copyright (c) Steve Scherf et al.
# Submitted via: audiograbber 1.83.01
#
DISCID=5809ab09
DTITLE=Various Artist - American Folk Blues Festival '85
DYEAR=2002
DGENRE=Blues
TTITLE0=James "Sparky" Rucker - Walkin' Blues
TTITLE1=Blind Joe Hill - Fanny Mae
TTITLE2=Cash McCall - I Can't Quit You Baby
TTITLE3=James Thomas - Smokey Mountain Blues
TTITLE4=Eddie "Cleanhead" Vinson - Hold It Right There
TTITLE5=The Young Blues Thrillers - From Boogie To Funk
TTITLE6=The Young Blues Thrillers - Gettin' Closer
TTITLE7=The Young Blues Thrillers - The Young Blues Thrillers' Theme
TTITLE8=Margie Evans and The Young Blues Thrillers - Two Lovers In One
EXTD=YEAR: 2002
EXTT0=
EXTT1=
EXTT2=
EXTT3=
EXTT4=
EXTT5=
EXTT6=
EXTT7=
EXTT8=
PLAYORDER=
